<svg width="18" height="18" viewBox="0 0 18 18" fill="none" xmlns="http://www.w3.org/2000/svg">
<path d="M17.6694 11.2976C17.4584 11.0863 17.1721 10.9677 16.8735 10.9677C16.5749 10.9677 16.2885 11.0863 16.0776 11.2976L14.4829 12.8922L12.8881 11.2974L12.8883 11.2976C12.6039 11.0132 12.1896 10.9021 11.8011 11.0063C11.4127 11.1103 11.1092 11.4138 11.0052 11.8022C10.9011 12.1906 11.0121 12.6049 11.2966 12.8894L12.8913 14.4841L11.2966 16.0789V16.0787C11.0121 16.3629 10.9011 16.7775 11.0052 17.1659C11.1092 17.5543 11.4127 17.8576 11.8011 17.9618C12.1896 18.0658 12.6039 17.9547 12.8883 17.6705L14.4831 16.0757L16.0778 17.6705H16.0776C16.3619 17.9547 16.7764 18.0658 17.1648 17.9618C17.5532 17.8576 17.8565 17.5543 17.9607 17.1659C18.0647 16.7774 17.9537 16.3629 17.6694 16.0787L16.0747 14.4839L17.6694 12.8892V12.8894C17.8807 12.6783 17.9994 12.3921 17.9994 12.0935C17.9994 11.7949 17.8807 11.5085 17.6694 11.2976L17.6694 11.2976Z" fill="#1F4EB2"/>
<path d="M7.87481 17.9996C8.27658 17.9996 8.64797 17.7852 8.84901 17.4371C9.04989 17.0891 9.04989 16.6603 8.84901 16.3123C8.64792 15.9641 8.27658 15.7497 7.87481 15.7497C6.38288 15.7497 4.95216 15.1572 3.89731 14.1023C2.84245 13.0475 2.24999 11.6168 2.24999 10.1248C2.24999 6.18756 6.84547 2.31738 7.87481 2.25009C8.68759 2.30345 12.0371 4.86276 13.1677 8.23198C13.2538 8.52547 13.4555 8.77106 13.7266 8.91253C13.9977 9.05417 14.3147 9.07909 14.6044 8.98198C14.8944 8.88487 15.1324 8.67379 15.2634 8.39755C15.3944 8.12132 15.4076 7.80373 15.2995 7.51767C14.0226 3.71811 9.96999 0 7.87475 0C5.46451 0 0 5.18889 0 10.1247V10.1245C0 12.213 0.82966 14.216 2.30648 15.693C3.78329 17.1701 5.78628 17.9995 7.87505 17.9995L7.87481 17.9996Z" fill="#1F4EB2"/>
</svg>
