<svg width="18" height="18" viewBox="0 0 18 18" fill="none" xmlns="http://www.w3.org/2000/svg">
<path d="M4.50338 15.0653H13.4967C15.026 15.0677 16.4518 14.2925 17.2812 13.0075C18.1106 11.7225 18.2302 10.1041 17.5984 8.71132C16.9666 7.31846 15.6702 6.34219 14.1572 6.11987C13.5828 4.76033 12.495 3.68274 11.1303 3.12106C9.76554 2.55958 8.23447 2.55958 6.86966 3.12106C5.50506 3.68269 4.41723 4.76033 3.84285 6.11987C2.32985 6.34218 1.03345 7.31846 0.401607 8.71132C-0.230234 10.1042 -0.110641 11.7225 0.718796 13.0075C1.54822 14.2925 2.97405 15.0677 4.50331 15.0653H4.50338ZM4.50338 8.32032H4.66374C4.91271 8.32012 5.15462 8.2372 5.35164 8.08468C5.54847 7.93197 5.68903 7.71828 5.75136 7.47718C5.99582 6.50523 6.66254 5.69383 7.56884 5.26549C8.47495 4.83734 9.52529 4.83734 10.4314 5.26549C11.3377 5.69384 12.0044 6.50523 12.2489 7.47718C12.3112 7.71831 12.4518 7.93199 12.6486 8.08468C12.8456 8.2372 13.0875 8.32012 13.3365 8.32032H13.418C13.9985 8.3115 14.5608 8.52243 14.9922 8.91081C15.4239 9.29896 15.6927 9.83593 15.745 10.414C15.788 11.0366 15.5702 11.649 15.1438 12.1048C14.7174 12.5604 14.1209 12.8184 13.4969 12.817H4.58237C4.00192 12.8257 3.43964 12.6149 3.00819 12.2265C2.57651 11.8382 2.30775 11.3012 2.2554 10.7231C2.21247 10.1005 2.43027 9.48809 2.85663 9.03246C3.28301 8.57667 3.87957 8.31866 4.50353 8.32027L4.50338 8.32032Z" fill="#1F4EB2"/>
</svg>
