<svg width="18" height="18" viewBox="0 0 18 18" fill="none" xmlns="http://www.w3.org/2000/svg">
<path d="M17.7186 14.0624C17.7186 12.3131 16.1942 10.5637 15.0438 9.48937L15.044 9.48918C14.6986 9.17273 14.2469 8.99695 13.7785 8.99695C13.3098 8.99695 12.8582 9.17273 12.5127 9.48918C11.3625 10.5635 9.83789 12.3017 9.83789 14.0623L9.83809 14.0624C9.83809 15.4691 10.5885 16.769 11.8068 17.4724C13.0251 18.1759 14.5261 18.1759 15.7444 17.4724C16.9625 16.769 17.7131 15.4691 17.7131 14.0624H17.7186ZM13.7812 15.7499C13.3337 15.7499 12.9045 15.5721 12.588 15.2557C12.2716 14.9392 12.0936 14.51 12.0936 14.0625C12.0936 13.3452 12.8811 12.285 13.7812 11.3906C14.6729 12.2823 15.4688 13.3593 15.4688 14.0625C15.4688 14.51 15.2909 14.9392 14.9744 15.2557C14.658 15.5721 14.2287 15.7499 13.7812 15.7499Z" fill="#4D5053"/>
<path d="M12.1839 6.22116C12.3381 6.48404 12.5923 6.67317 12.8886 6.74519C13.1848 6.81719 13.4975 6.76598 13.7551 6.60315C14.0129 6.44051 14.1934 6.17998 14.2556 5.88159C14.3178 5.58339 14.2564 5.27243 14.0851 5.02036C12.3667 2.30068 9.52323 0 7.875 0C5.46469 0 0 5.18906 0 10.125L0.000196184 10.1248C0.0100053 12.0971 0.755503 13.9946 2.09094 15.446C3.42637 16.8973 5.2552 17.798 7.21973 17.9718H7.31253C7.71451 17.9883 8.09471 17.7892 8.31012 17.4494C8.52533 17.1098 8.54299 16.6809 8.35641 16.3245C8.16985 15.9682 7.80727 15.7385 7.40529 15.7218C6.00376 15.5973 4.69911 14.9549 3.74587 13.9199C2.79244 12.885 2.25917 11.5319 2.24997 10.1249C2.24997 6.18751 6.84284 2.3172 7.87498 2.2499C8.41508 2.28934 10.6061 3.72657 12.1838 6.22126L12.1839 6.22116Z" fill="#4D5053"/>
</svg>
