<svg width="18" height="18" viewBox="0 0 18 18" fill="none" xmlns="http://www.w3.org/2000/svg">
<path fill-rule="evenodd" clip-rule="evenodd" d="M13.4968 14.3654H4.50344H4.50337C2.97411 14.3677 1.54828 13.5925 0.718854 12.3075C-0.110583 11.0225 -0.230176 9.40423 0.401664 8.01137C1.0335 6.61851 2.32991 5.64223 3.84291 5.41992C4.41729 4.06038 5.50512 2.98274 6.86972 2.42111C8.23453 1.85963 9.7656 1.85963 11.1304 2.42111C12.495 2.98279 13.5828 4.06038 14.1572 5.41992C15.6702 5.64224 16.9666 6.61851 17.5985 8.01137C18.2303 9.40417 18.1107 11.0225 17.2813 12.3075C16.4518 13.5926 15.0261 14.3677 13.4968 14.3654Z" fill="#4D5053"/>
</svg>
