<svg width="current" height="current" viewBox="0 0 36 36" fill="none" xmlns="http://www.w3.org/2000/svg">
<path fill-rule="evenodd" clip-rule="evenodd" d="M22.3058 16.3972C22.1502 16.0705 21.9776 15.7284 21.7888 15.3709C21.5574 14.9325 21.3046 14.478 21.0335 14.0108C21.0089 13.9683 20.9841 13.9258 20.9593 13.8833L13.0229 21.4632C13.348 22.3575 13.9074 23.1396 14.6267 23.7349L22.3058 16.3972ZM23.1312 18.5375C23.2385 18.9493 23.2941 19.3214 23.2941 19.6544C23.2941 22.5783 20.9239 24.9485 18 24.9485C17.5203 24.9485 17.0556 24.8848 16.6137 24.7652L23.1312 18.5375ZM10.2489 21.5234C9.49352 23.525 7.56005 24.9486 5.29413 24.9486C2.37024 24.9486 0 22.5783 0 19.6545C0 18.6144 0.542882 17.1938 1.50531 15.3709C1.73671 14.9325 1.98958 14.478 2.26063 14.0108C2.73361 13.1955 3.23905 12.38 3.74442 11.6018C3.92132 11.3295 4.08573 11.0809 4.23357 10.8611C4.32297 10.7282 4.38746 10.6336 4.42301 10.5822C4.84398 9.97277 5.74446 9.97277 6.16537 10.5822C6.20091 10.6336 6.26547 10.7282 6.35481 10.8611C6.50264 11.0809 6.66706 11.3295 6.84396 11.6018C7.34933 12.38 7.85476 13.1955 8.32774 14.0108C8.5988 14.478 8.85166 14.9326 9.08307 15.3709C10.0455 17.1938 10.5884 18.6144 10.5884 19.6545C10.5884 20.1599 10.5176 20.6486 10.3853 21.1115C10.3107 21.2396 10.2652 21.3801 10.2489 21.5234ZM19.8286 12.0349C19.7358 11.8894 19.6428 11.745 19.5498 11.6017C19.3729 11.3294 19.2085 11.0808 19.0606 10.861C18.9712 10.728 18.9067 10.6335 18.8712 10.582C18.4502 9.97265 17.5497 9.97265 17.1288 10.582C17.0933 10.6335 17.0287 10.7281 16.9394 10.861C16.7915 11.0808 16.6271 11.3294 16.4502 11.6017C15.9449 12.3799 15.4394 13.1954 14.9664 14.0107C14.6954 14.4779 14.4425 14.9325 14.2111 15.3707C13.5092 16.7004 13.0304 17.816 12.8226 18.726L19.8286 12.0349ZM30.7059 24.9486C33.6297 24.9486 36 22.5784 36 19.6545C36 18.6144 35.4571 17.1938 34.4947 15.3709C34.2633 14.9325 34.0104 14.478 33.7394 14.0108C33.2664 13.1955 32.761 12.38 32.2556 11.6018C32.0787 11.3295 31.9143 11.0809 31.7664 10.8611C31.677 10.7282 31.6125 10.6336 31.577 10.5822C31.156 9.97277 30.2555 9.97277 29.8346 10.5822C29.7991 10.6336 29.7345 10.7282 29.6452 10.8611C29.4974 11.0809 29.3329 11.3295 29.156 11.6018C28.6507 12.38 28.1452 13.1955 27.6723 14.0108C27.4012 14.478 27.1483 14.9326 26.9169 15.3709C25.9545 17.1938 25.4116 18.6144 25.4116 19.6545C25.4118 22.5783 27.782 24.9486 30.7059 24.9486ZM6.49592 15.0733C6.11264 14.4125 5.70529 13.7488 5.29413 13.1061C4.88303 13.7488 4.47567 14.4126 4.09233 15.0733C3.83483 15.5172 3.59552 15.9474 3.37796 16.3595C2.57544 17.8797 2.11762 19.0776 2.11762 19.6545C2.11762 21.4088 3.53976 22.8309 5.29407 22.8309C7.04838 22.8309 8.47052 21.4088 8.47052 19.6545C8.47052 19.0776 8.01276 17.8797 7.21018 16.3595C6.99274 15.9474 6.75343 15.5172 6.49592 15.0733Z" fill="current"/>
</svg>
