<svg width="15" height="15" viewBox="0 0 15 15" fill="none" xmlns="http://www.w3.org/2000/svg">
<path d="M14.7373 8.78655C14.8109 8.41539 14.5534 8.05649 14.1979 7.9946C13.8301 7.92037 13.4499 8.18026 13.3886 8.56376C13.1557 9.93732 12.4444 11.249 11.2795 12.2265C9.07236 14.0828 5.81071 14.0827 3.59127 12.2389C0.660617 9.80122 0.623918 5.2845 3.52996 2.82205C5.88424 0.817351 9.40344 0.953525 11.6229 3.09429L10.8381 3.88624C10.5561 4.17083 10.7032 4.66578 11.0833 4.75242L14.3695 5.51959C14.7496 5.60626 15.0807 5.27212 14.9826 4.90087L14.2224 1.58459C14.1243 1.18866 13.6461 1.05254 13.3641 1.33713L12.5793 2.12909C9.91845 -0.481904 5.79842 -0.729384 2.85555 1.59699C-0.798556 4.49254 -0.945655 9.93729 2.41412 13.0556C5.20988 15.6295 9.5751 15.6542 12.3831 13.0927C13.6829 11.9049 14.4553 10.3828 14.7373 8.78655Z" fill="#2B63DA"/>
</svg>
