<svg width="18" height="18" viewBox="0 0 18 18" fill="none" xmlns="http://www.w3.org/2000/svg">
<path d="M3.51372 10.1352H7.63044V14.5776C7.63691 14.8636 7.53701 15.1419 7.35034 15.3586C7.16367 15.5754 6.90335 15.7153 6.61954 15.7513C6.30262 15.7832 5.98728 15.679 5.7516 15.4649C5.51596 15.2506 5.38237 14.9466 5.38394 14.6281C5.38394 14.3302 5.26563 14.0446 5.05487 13.8338C4.84431 13.6233 4.55853 13.505 4.26059 13.505H4.16226H4.16246C3.89058 13.505 3.62988 13.6129 3.43773 13.8051C3.24538 13.9974 3.13745 14.2579 3.13745 14.5298C3.12648 15.3399 3.40247 16.1279 3.91624 16.7543C4.43001 17.3807 5.14888 17.8052 5.94552 17.9529C6.92393 18.1182 7.9254 17.844 8.68308 17.2033C9.44071 16.5626 9.87751 15.6204 9.87676 14.6281V10.1351H13.9935C14.72 10.1349 15.4138 9.8319 15.9076 9.29911C16.4016 8.76613 16.6513 8.05158 16.5965 7.32705C16.4139 4.65161 14.8802 2.25347 12.5277 0.965774C10.1755 -0.321925 7.32879 -0.321925 4.97653 0.965774C2.62428 2.25367 1.09057 4.65156 0.907797 7.32705C0.85315 8.05158 1.10269 8.76613 1.59668 9.29911C2.09067 9.83189 2.78429 10.1349 3.51097 10.1351L3.51372 10.1352ZM8.75377 2.27258C10.1776 2.26906 11.5495 2.80652 12.5921 3.7761C13.6348 4.74569 14.2702 6.0751 14.3699 7.49558C14.3779 7.59901 14.3415 7.70126 14.2696 7.77628C14.1979 7.8513 14.0974 7.89224 13.9936 7.88871H3.51402C3.41021 7.89224 3.30973 7.8513 3.23804 7.77628C3.16615 7.70126 3.12971 7.59901 3.13775 7.49558C3.23745 6.0751 3.87286 4.74569 4.9155 3.7761C5.95815 2.80652 7.33004 2.26902 8.75388 2.27258H8.75377Z" fill="#1F4EB2"/>
</svg>
