<svg width="current" height="current" viewBox="0 0 36 36" fill="none" xmlns="http://www.w3.org/2000/svg">
<path d="M8.82753 25.2291C8.82753 25.6379 8.49607 25.9694 8.08723 25.9694C7.67838 25.9694 7.34692 25.6379 7.34692 25.2291C7.34692 24.8202 7.67838 24.4888 8.08723 24.4888C8.49607 24.4888 8.82753 24.8202 8.82753 25.2291Z" fill="current"/>
<path d="M28.6578 25.2291C28.6578 25.6379 28.3264 25.9694 27.9175 25.9694C27.5087 25.9694 27.1772 25.6379 27.1772 25.2291C27.1772 24.8202 27.5087 24.4888 27.9175 24.4888C28.3264 24.4888 28.6578 24.8202 28.6578 25.2291Z" fill="current"/>
<path d="M36 17.3216C35.9845 16.7863 35.9454 16.2571 35.8843 15.7343C35.6819 15.8195 35.5086 15.9132 35.3495 15.9991C34.9566 16.2128 34.6729 16.3672 34.0185 16.3672C33.3642 16.3672 33.0801 16.2128 32.6871 15.9991C32.2391 15.7554 31.6811 15.4523 30.6528 15.4523C29.624 15.4523 29.0669 15.7554 28.6181 15.9991C28.2252 16.2128 27.941 16.3672 27.2866 16.3672C26.6319 16.3672 26.3482 16.2128 25.9547 15.9991C25.5309 15.7687 25.0081 15.4854 24.0816 15.4553C23.7132 14.6407 23.2781 13.7481 22.7691 12.7684C22.7639 12.6231 22.7863 12.3183 23.0279 12.0758C23.3082 11.7947 24.1022 11.3759 26.2736 11.7302C28.6901 12.1248 32.1289 12.1425 35.0571 12.0543C34.8886 11.5574 34.6977 11.0703 34.4875 10.5936C31.7455 10.6628 28.6622 10.6288 26.5106 10.2776C24.3336 9.92249 22.8005 10.1877 21.9553 11.0673C21.1178 11.9379 21.3074 13.0131 21.3319 13.1331C21.3457 13.2006 21.3685 13.2655 21.4007 13.3265C23.6259 17.5946 24.0928 19.491 24.0928 20.3302C24.0928 23.5218 21.3603 26.1189 18.0019 26.1189C14.6434 26.1189 11.9109 23.5218 11.9109 20.3302C11.9109 19.4905 12.3782 17.595 14.6026 13.3265C14.6348 13.2655 14.6576 13.2006 14.6714 13.1331C14.6959 13.0131 14.885 11.938 14.048 11.0673C13.2024 10.1882 11.6698 9.92253 9.49223 10.2776C7.34141 10.6284 4.25853 10.6624 1.51616 10.5936C1.30593 11.0703 1.11506 11.557 0.946532 12.0543C3.87457 12.1429 7.31304 12.1244 9.72953 11.7306C11.9006 11.3759 12.695 11.7947 12.9757 12.0763C13.2195 12.3205 13.2397 12.6287 13.2354 12.7671C12.5351 14.1166 11.9693 15.3061 11.5343 16.3439C11.1379 16.2936 10.8971 16.1647 10.5923 15.9996C10.1444 15.7558 9.58637 15.4527 8.55808 15.4527C7.52931 15.4527 6.97173 15.7558 6.52337 15.9996C6.13043 16.2132 5.84627 16.3676 5.19191 16.3676C4.53755 16.3676 4.25343 16.2133 3.86046 15.9996C3.4125 15.7558 2.85448 15.4527 1.82619 15.4527C1.02441 15.4527 0.509369 15.6372 0.108766 15.8336C0.0460001 16.3955 0.00988741 16.9647 0 17.5408C0.185719 17.4604 0.3465 17.3736 0.494393 17.2928C0.887754 17.0791 1.17149 16.9248 1.82585 16.9248C2.48016 16.9248 2.76433 17.0791 3.1573 17.2928C3.60526 17.5361 4.16328 17.8396 5.19201 17.8396C6.22075 17.8396 6.77792 17.5365 7.22672 17.2928C7.61966 17.0791 7.90382 16.9248 8.55818 16.9248C9.21249 16.9248 9.49666 17.0791 9.88963 17.2928C10.1798 17.4501 10.5164 17.6324 10.9962 17.7416C10.6248 18.815 10.4395 19.6748 10.4395 20.3309C10.4395 24.3346 13.8323 27.5916 18.0024 27.5916C22.1726 27.5916 25.5654 24.3346 25.5654 20.3309C25.5654 19.5411 25.2967 18.4543 24.7563 17.0549C24.9274 17.1177 25.08 17.199 25.252 17.2927C25.7003 17.5364 26.2579 17.8395 27.2871 17.8395C28.3159 17.8395 28.8734 17.5364 29.3218 17.2927C29.7147 17.079 29.9989 16.9247 30.6533 16.9247C31.3076 16.9247 31.5917 17.079 31.9847 17.2927C32.4327 17.536 32.9907 17.8395 34.0194 17.8395C35.0074 17.8395 35.5606 17.5593 36 17.3216Z" fill="current"/>
<path d="M6.21665 20.4395C6.21665 20.8285 5.90153 21.1437 5.51247 21.1437C5.12341 21.1437 4.80786 20.8285 4.80786 20.4395C4.80786 20.0504 5.12341 19.7349 5.51247 19.7349C5.90153 19.7349 6.21665 20.0504 6.21665 20.4395Z" fill="current"/>
<path d="M2.69261 23.6729C2.69261 24.0667 2.37362 24.3857 1.97982 24.3857C1.58602 24.3857 1.2666 24.0667 1.2666 23.6729C1.2666 23.2791 1.58602 22.9597 1.97982 22.9597C2.37362 22.9597 2.69261 23.2791 2.69261 23.6729Z" fill="current"/>
<path d="M31.1979 20.4395C31.1979 20.8285 30.8823 21.1437 30.4932 21.1437C30.1042 21.1437 29.7891 20.8285 29.7891 20.4395C29.7891 20.0504 30.1042 19.7349 30.4932 19.7349C30.8823 19.7349 31.1979 20.0504 31.1979 20.4395Z" fill="current"/>
<path d="M34.7382 23.6729C34.7382 24.0667 34.4188 24.3857 34.025 24.3857C33.6312 24.3857 33.3118 24.0667 33.3118 23.6729C33.3118 23.2791 33.6312 22.9597 34.025 22.9597C34.4188 22.9597 34.7382 23.2791 34.7382 23.6729Z" fill="current"/>
<path d="M18.0029 24.3551C20.4478 24.3551 22.4369 22.4541 22.4369 20.1176C22.4369 18.6894 20.3854 14.4458 18.0024 10.311C15.6195 14.4454 13.5688 18.6877 13.5688 20.1176C13.5688 22.454 15.5576 24.3551 18.0029 24.3551Z" fill="current"/>
</svg>
