<svg width="current" height="current" viewBox="0 0 36 36" fill="none" xmlns="http://www.w3.org/2000/svg">
<path fill-rule="evenodd" clip-rule="evenodd" d="M0.747142 18.3228C0.334573 18.3228 0 18.6571 0 19.0697V28.058C0 29.6384 0.627908 31.1542 1.7453 32.2716C2.86288 33.3891 4.3785 34.017 5.95903 34.017H30.041C31.6213 34.017 33.1371 33.3891 34.2545 32.2716C35.3721 31.1542 36 29.6384 36 28.058V19.0697C36 18.6571 35.6654 18.3228 35.2529 18.3228H0.747142ZM1.49411 19.8169H34.5057V28.058C34.5057 29.2421 34.0354 30.3778 33.1981 31.2151C32.3607 32.0525 31.2251 32.5228 30.041 32.5228C23.5333 32.5228 12.4667 32.5228 5.95903 32.5228C4.77493 32.5228 3.63925 32.0525 2.80192 31.2151C1.96459 30.3778 1.49429 29.2421 1.49429 28.058L1.49411 19.8169Z" fill="current"/>
<path fill-rule="evenodd" clip-rule="evenodd" d="M0.811276 23.1218C1.98784 23.0204 2.17647 22.8108 3.61571 22.8108C4.38024 22.8108 5.14226 23.051 5.90662 23.2802C6.81262 23.5518 7.72078 23.8125 8.62678 23.8125C9.5326 23.8125 10.4408 23.5518 11.3468 23.2802C12.1111 23.051 12.8733 22.8108 13.6377 22.8108C14.402 22.8108 15.1642 23.051 15.9286 23.2802C16.8344 23.5518 17.7426 23.8125 18.6486 23.8125C19.5546 23.8125 20.4627 23.5518 21.3685 23.2802C22.1329 23.051 22.8951 22.8108 23.6595 22.8108C24.4238 22.8108 25.186 23.051 25.9504 23.2802C26.8564 23.5518 27.7645 23.8125 28.6704 23.8125C29.5911 23.8125 30.2685 23.6185 30.9446 23.4182C31.4952 23.2551 32.0448 23.0854 32.7944 23.0854C33.9061 23.0854 34.4503 23.4304 35.0314 23.6108C35.4251 23.7331 35.8441 23.5125 35.9662 23.1186C36.0885 22.7249 35.868 22.306 35.4742 22.1837C34.7802 21.9684 34.1221 21.5912 32.7944 21.5912C31.8737 21.5912 31.1963 21.7852 30.5202 21.9856C29.9696 22.1488 29.42 22.3184 28.6704 22.3184C27.906 22.3184 27.144 22.0781 26.3794 21.849C25.4736 21.5774 24.5655 21.3167 23.6595 21.3167C22.7535 21.3167 21.8455 21.5774 20.9395 21.849C20.1751 22.0781 19.4129 22.3184 18.6486 22.3184C17.8842 22.3184 17.122 22.0781 16.3577 21.849C15.4516 21.5774 14.5437 21.3167 13.6377 21.3167C12.7317 21.3167 11.8235 21.5774 10.9175 21.849C10.1532 22.0781 9.39113 22.3184 8.62678 22.3184C7.86242 22.3184 7.10022 22.0781 6.33586 21.849C5.42986 21.5774 4.52171 21.3167 3.61571 21.3167C2.11084 21.3167 1.91289 21.527 0.682718 21.6333C0.271942 21.6686 -0.0326881 22.031 0.00281329 22.4418C0.0381354 22.8525 0.4005 23.1573 0.811276 23.1218Z" fill="current"/>
<path fill-rule="evenodd" clip-rule="evenodd" d="M4.63777 27.9901H6.19983C6.61222 27.9901 6.94697 27.6554 6.94697 27.243C6.94697 26.8306 6.61222 26.4958 6.19983 26.4958H4.63777C4.22538 26.4958 3.89062 26.8306 3.89062 27.243C3.89062 27.6554 4.22538 27.9901 4.63777 27.9901Z" fill="current"/>
<path fill-rule="evenodd" clip-rule="evenodd" d="M10.9766 30.7392H12.5387C12.9511 30.7392 13.2858 30.4044 13.2858 29.992C13.2858 29.5796 12.9511 29.2449 12.5387 29.2449H10.9766C10.5642 29.2449 10.2295 29.5796 10.2295 29.992C10.2295 30.4044 10.5642 30.7392 10.9766 30.7392Z" fill="current"/>
<path fill-rule="evenodd" clip-rule="evenodd" d="M16.5346 27.2011H18.0968C18.5092 27.2011 18.8439 26.8663 18.8439 26.4539C18.8439 26.0415 18.5092 25.7068 18.0968 25.7068H16.5346C16.1224 25.7068 15.7876 26.0415 15.7876 26.4539C15.7876 26.8663 16.1224 27.2011 16.5346 27.2011Z" fill="current"/>
<path fill-rule="evenodd" clip-rule="evenodd" d="M23.4393 30.4668H25.0016C25.414 30.4668 25.7487 30.132 25.7487 29.7196C25.7487 29.3074 25.414 28.9727 25.0016 28.9727H23.4393C23.0271 28.9727 22.6924 29.3074 22.6924 29.7196C22.6924 30.132 23.0271 30.4668 23.4393 30.4668Z" fill="current"/>
<path fill-rule="evenodd" clip-rule="evenodd" d="M31.3038 28.435H32.866C33.2784 28.435 33.6132 28.1003 33.6132 27.6879C33.6132 27.2757 33.2784 26.9409 32.866 26.9409H31.3038C30.8914 26.9409 30.5566 27.2757 30.5566 27.6879C30.5566 28.1003 30.8914 28.435 31.3038 28.435Z" fill="current"/>
<path fill-rule="evenodd" clip-rule="evenodd" d="M29.6671 7.65033C29.7855 7.46512 29.8161 7.23723 29.7511 7.02727C29.686 6.81731 29.5318 6.64679 29.3293 6.56091C28.1981 6.08038 27.2009 5.29792 26.0887 4.55006C24.2476 3.31182 22.1274 2.15426 18.839 2.25628C18.4876 2.26704 18.1914 2.52146 18.1276 2.86733L17.8472 4.38582L15.5066 2.7793C15.4309 2.7273 15.3463 2.68983 15.257 2.66849C8.48502 1.05515 2.12166 6.61111 2.12166 6.61111C1.85415 6.84635 1.78996 7.23777 1.96836 7.54616C3.63119 10.4205 8.3414 13.4812 8.3414 13.4812C8.4947 13.5798 8.67866 13.6192 8.85868 13.5918L11.8444 13.1367L11.434 14.1397C11.3504 14.344 11.3615 14.5745 11.4639 14.7698C11.5665 14.9652 11.7501 15.1053 11.9656 15.1524C17.5158 16.3679 21.2504 15.6909 23.8166 14.3567C27.6676 12.3544 28.9173 8.82564 29.6671 7.65033ZM28.0079 7.57987C27.2789 9.00835 26.0395 11.5168 23.1274 13.0309C20.9177 14.1797 17.757 14.7375 13.1583 13.8708L13.7263 12.4825C13.8282 12.2334 13.7883 11.9489 13.622 11.7375C13.4556 11.5261 13.1882 11.4205 12.9223 11.461L8.91713 12.0715C8.06366 11.5008 5.09374 9.43257 3.60465 7.32975C5.10521 6.17039 9.79893 2.98137 14.7772 4.09123C14.7779 4.09141 17.9501 6.26865 17.9501 6.26865C18.1586 6.41191 18.4254 6.4397 18.659 6.3427C18.8928 6.24588 19.0616 6.03717 19.1075 5.78849L19.4845 3.74734C22.0395 3.80758 23.7501 4.77795 25.2549 5.78992C26.2032 6.42769 27.0793 7.0798 28.0079 7.57987Z" fill="current"/>
<path fill-rule="evenodd" clip-rule="evenodd" d="M31.4554 5.25739C26.0621 8.35354 18.116 9.40871 11.1142 8.20992C10.7079 8.14017 10.3213 8.41378 10.2518 8.82007C10.1822 9.22655 10.4556 9.61294 10.8621 9.68251C18.2084 10.9405 26.5406 9.80156 32.1993 6.55319C32.5569 6.34807 32.6806 5.89103 32.4753 5.53333C32.27 5.1758 31.8129 5.05209 31.4554 5.25739Z" fill="current"/>
</svg>
