<svg width="18" height="18" viewBox="0 0 18 18" fill="none" xmlns="http://www.w3.org/2000/svg">
<path d="M4.86118 12.4718H7.31675L6.97863 14.7306C6.8522 15.6054 7.13735 16.4894 7.75094 17.1255C8.36452 17.7617 9.23778 18.0784 10.1166 17.9834C10.9953 17.8885 11.7808 17.3926 12.2445 16.64L16.18 10.1657C16.5334 9.58415 16.668 8.89573 16.5593 8.22395C16.4509 7.55216 16.1064 6.94105 15.5877 6.50049C15.0692 6.05991 14.4105 5.81866 13.73 5.81999H13.1064L13.8464 3.88001C14.1818 3.00096 14.0635 2.01308 13.5299 1.23806C12.9964 0.463034 12.1156 0.000197962 11.1747 0H6.2469C5.58941 0.00173994 4.95222 0.22928 4.44222 0.644516C3.93222 1.05958 3.5802 1.63725 3.44509 2.28077L2.05935 9.03178V9.03197C1.88498 9.87445 2.09937 10.7506 2.6428 11.4176C3.18605 12.0847 4.00087 12.4716 4.86116 12.4714L4.86118 12.4718ZM4.22938 9.48125L5.61512 2.73025C5.67698 2.43079 5.94125 2.21639 6.24692 2.21757H11.1718C11.3837 2.21719 11.5822 2.3212 11.7025 2.49577C11.8226 2.67014 11.849 2.89265 11.7733 3.09044L10.2213 7.16723V7.16742C10.1467 7.36481 10.1737 7.58655 10.2938 7.76017C10.4138 7.93397 10.6116 8.03759 10.8227 8.03759H13.7301C13.9627 8.03624 14.178 8.16054 14.2931 8.36295C14.4081 8.56536 14.4048 8.81397 14.2844 9.01311L10.3543 15.4875C10.1958 15.7506 9.87353 15.8646 9.58469 15.76C9.29607 15.6557 9.12149 15.3614 9.16828 15.0579L9.778 10.9921H9.77781C9.80526 10.8075 9.75094 10.62 9.62914 10.4785C9.50735 10.337 9.32988 10.2554 9.14332 10.255H4.86125C4.66754 10.2558 4.48389 10.169 4.36115 10.0189C4.23858 9.86892 4.19025 9.67154 4.22949 9.48172L4.22938 9.48125Z" fill="#4D5053"/>
</svg>
