<svg width="18" height="9" viewBox="0 0 18 9" fill="none" xmlns="http://www.w3.org/2000/svg">
<path d="M18.0005 4.23683C18.0005 3.93842 17.882 3.65235 17.6711 3.44126C17.46 3.23035 17.174 3.11185 16.8756 3.11185H13.1264L14.2796 1.96159V1.96139C14.4675 1.77835 14.5868 1.53625 14.6176 1.27552C14.6482 1.01497 14.5886 0.751667 14.4483 0.529771C14.2635 0.244507 13.9596 0.0579304 13.6213 0.022396C13.2833 -0.0131148 12.9472 0.106172 12.7073 0.347093L11.0956 1.95862C10.7624 2.2843 10.5025 2.67745 10.3333 3.11184C10.1128 3.68316 10.0628 4.30625 10.1895 4.90544C10.3165 5.50463 10.6147 6.05394 11.0479 6.48693L12.7045 8.14356C12.9403 8.37978 13.2687 8.49906 13.6013 8.46924C13.9338 8.43923 14.2358 8.26344 14.4257 7.98877C14.5793 7.75864 14.6464 7.48139 14.615 7.20656C14.5836 6.9315 14.4557 6.67643 14.2542 6.48693L13.1293 5.36199H16.8756C17.174 5.36199 17.46 5.24329 17.6711 5.03238C17.882 4.82148 18.0005 4.53524 18.0005 4.23683Z" fill="#1F4EB2"/>
<path d="M1.12495 5.36191H4.87416L3.72094 6.51513V6.51493C3.53299 6.69817 3.4137 6.94028 3.3829 7.20081C3.35229 7.46155 3.41194 7.72486 3.55221 7.94655C3.73703 8.23201 4.04093 8.41839 4.37917 8.45393C4.71722 8.48944 5.0533 8.37015 5.29322 8.12943L6.90495 6.52066C7.23887 6.19322 7.49862 5.79807 7.66717 5.36196C7.88769 4.79065 7.93772 4.16756 7.81098 3.56837C7.68405 2.96918 7.38583 2.41967 6.95263 1.98668L5.296 0.330044C5.06018 0.0938293 4.73177 -0.0254557 4.39923 0.00455895C4.06668 0.0343802 3.76473 0.210367 3.57483 0.484838C3.42121 0.71497 3.35412 0.992214 3.38551 1.26725C3.4169 1.54212 3.54482 1.79718 3.7463 1.98668L4.87125 3.11162L1.12495 3.11182C0.722948 3.11182 0.351577 3.32625 0.150676 3.67429C-0.0502253 4.02233 -0.0502253 4.45122 0.150676 4.79924C0.351577 5.14748 0.722993 5.36191 1.12495 5.36191Z" fill="#1F4EB2"/>
</svg>
