<svg width="current" height="current" viewBox="0 0 36 36" fill="none" xmlns="http://www.w3.org/2000/svg">
<path d="M6.2999 25.75C6.96155 25.75 7.4999 26.2883 7.4999 26.95C7.4999 27.2814 7.76855 27.55 8.0999 27.55C8.43125 27.55 8.6999 27.2814 8.6999 26.95C8.6999 25.6267 7.62327 24.55 6.2999 24.55C4.97653 24.55 3.8999 25.6267 3.8999 26.95C3.8999 28.2734 4.97653 29.35 6.2999 29.35C6.63125 29.35 6.8999 29.0814 6.8999 28.75C6.8999 28.4187 6.63125 28.15 6.2999 28.15C5.63825 28.15 5.0999 27.6118 5.0999 26.95C5.0999 26.2883 5.63818 25.75 6.2999 25.75Z" fill="current"/>
<path d="M13.5 31.45C14.1628 31.45 14.7 30.9128 14.7 30.25C14.7 29.5873 14.1628 29.05 13.5 29.05C12.8373 29.05 12.3 29.5873 12.3 30.25C12.3 30.9128 12.8373 31.45 13.5 31.45Z" fill="current"/>
<path d="M23.5499 29.1249C24.047 29.1249 24.4499 28.722 24.4499 28.225C24.4499 27.7279 24.047 27.325 23.5499 27.325C23.0528 27.325 22.6499 27.7279 22.6499 28.225C22.6499 28.722 23.0528 29.1249 23.5499 29.1249Z" fill="current"/>
<path d="M29.775 27.5501C30.1063 27.5501 30.375 27.2814 30.375 26.9501C30.375 26.6187 30.1063 26.3501 29.775 26.3501C28.4516 26.3501 27.375 27.4267 27.375 28.7501C27.375 30.0735 28.4516 31.1501 29.775 31.1501C31.0984 31.1501 32.175 30.0735 32.175 28.7501C32.175 28.4187 31.9063 28.1501 31.575 28.1501C31.2436 28.1501 30.975 28.4187 30.975 28.7501C30.975 29.4118 30.4366 29.9501 29.775 29.9501C29.1133 29.9501 28.575 29.4118 28.575 28.7501C28.575 28.0884 29.1133 27.5501 29.775 27.5501Z" fill="current"/>
<path d="M17.4 25.0001C16.7383 25.0001 16.2 24.4619 16.2 23.8001C16.2 23.4688 15.9313 23.2001 15.6 23.2001C15.2686 23.2001 15 23.4688 15 23.8001C15 25.1235 16.0766 26.2001 17.4 26.2001C18.7234 26.2001 19.8 25.1235 19.8 23.8001C19.8 22.4768 18.7234 21.4001 17.4 21.4001C17.0686 21.4001 16.8 21.6688 16.8 22.0001C16.8 22.3315 17.0686 22.6001 17.4 22.6001C18.0616 22.6001 18.6 23.1384 18.6 23.8001C18.6 24.4619 18.0616 25.0001 17.4 25.0001Z" fill="current"/>
<path d="M35.3572 12.1078C34.0196 10.9835 32.7031 10.4593 31.4441 10.5496C29.7137 10.6738 28.9103 11.8513 27.8751 11.6133C27.4451 11.5144 27.2182 11.2511 26.9555 10.9464C26.6381 10.5781 26.243 10.1199 25.5105 10.0983C24.477 10.0678 24.1415 10.8485 23.9199 11.3652C23.674 11.9384 23.5294 12.2166 22.9355 12.2761C22.4951 12.32 22.2842 12.0726 21.8735 11.4539C21.5517 10.969 21.1513 10.3656 20.421 10.2549C19.5563 10.124 19.0346 10.6722 18.6535 11.0726C18.2885 11.4562 18.0627 11.6731 17.6669 11.6731C17.0419 11.6731 16.8959 11.1983 16.7483 9.67326C16.6355 8.50761 16.5077 7.18641 15.413 6.69982C15.2981 6.64882 14.6912 6.40424 14.0087 6.59534C11.4893 7.30019 12.9724 12.3024 10.478 12.4239C9.42385 12.4748 8.96763 11.9176 8.33545 11.1457C7.58748 10.2327 6.65665 9.09629 4.52643 9.04829C3.28001 9.02016 2.01926 9.43251 0.779885 10.2738C0.291561 10.6052 3.6e-05 11.1596 3.6e-05 11.7568C3.6e-05 12.0361 -0.000189 17.4118 0.000485999 17.4569C0.00648599 17.8632 0.407736 18.1465 0.79256 18.0159C2.13296 17.5618 3.46923 17.8117 4.43351 18.511C6.19705 19.7899 8.66035 19.7899 10.4237 18.511C11.7509 17.5484 13.6777 17.5483 15.005 18.511C16.7684 19.7899 19.2317 19.7899 20.9951 18.511C22.3224 17.5483 24.2492 17.5484 25.5764 18.511C27.3398 19.7898 29.8031 19.7899 31.5666 18.511C31.833 18.3178 32.127 18.1596 32.4405 18.0408C32.7504 17.9234 32.9064 17.577 32.789 17.2671C32.6716 16.9573 32.3253 16.8013 32.0153 16.9186C31.6025 17.0751 31.2144 17.284 30.8621 17.5395C29.5349 18.502 27.6081 18.5021 26.2808 17.5395C24.5174 16.2606 22.0541 16.2606 20.2906 17.5395C18.9634 18.502 17.0366 18.502 15.7094 17.5395C13.946 16.2606 11.4827 16.2606 9.7192 17.5395C8.392 18.5021 6.46525 18.502 5.13798 17.5395C4.02198 16.7302 2.57186 16.4216 1.19996 16.6701V11.7568C1.19996 11.5577 1.29483 11.3746 1.45376 11.2666C2.48253 10.5683 3.50621 10.2253 4.49936 10.248C6.07795 10.2835 6.69393 11.0355 7.4071 11.9062C8.06958 12.715 8.81665 13.6273 10.3423 13.6273C14.1224 13.6261 12.9256 8.14446 14.332 7.75101C14.6258 7.66866 14.9234 7.79549 14.9256 7.79646C15.7055 8.14311 15.3807 10.4455 15.928 11.7176C16.3388 12.6727 17.1004 12.8732 17.6669 12.8732C18.5965 12.8732 19.1318 12.3107 19.5227 11.9C19.8942 11.5097 20.0254 11.4087 20.2412 11.4414C20.8314 11.5309 21.2233 13.6531 23.055 13.4702C24.3795 13.3376 24.7666 12.4354 25.0227 11.8385C25.2574 11.2914 25.3037 11.2928 25.4752 11.298C25.9851 11.3131 26.2459 12.4701 27.6062 12.783C29.2307 13.1566 30.0662 11.8518 31.53 11.7467C32.4667 11.6795 33.4946 12.1102 34.5852 13.0267C34.7217 13.1414 34.8 13.3092 34.8 13.4871V32.7254C34.8 33.0562 34.5308 33.3254 34.2 33.3254H1.80003C1.46921 33.3254 1.20003 33.0562 1.20003 32.7254V21.4292C1.20003 21.0978 0.931385 20.8292 0.600035 20.8292C0.268686 20.8292 3.6e-05 21.0978 3.6e-05 21.4292V32.7252C3.6e-05 33.7177 0.80756 34.5252 1.80003 34.5252H34.2C35.1925 34.5252 36 33.7177 36 32.7252V13.4869C36 12.9537 35.7657 12.451 35.3572 12.1078Z" fill="current"/>
<path d="M4.04995 4.07523H10.2009L9.52622 4.82343C9.17665 5.2111 9.4576 5.8252 9.97164 5.8252C10.1356 5.8252 10.2989 5.75838 10.4174 5.62705C12.1016 3.75933 12.0303 3.85203 12.0832 3.74936C12.1981 3.52586 12.1592 3.26358 12.0038 3.08358C11.9738 3.04893 11.96 3.03431 10.4174 1.32341C10.1954 1.07733 9.81602 1.05776 9.57002 1.27968C9.32395 1.50161 9.30437 1.88103 9.5263 2.12711L10.201 2.87531H4.04995C3.7186 2.87531 3.44995 3.14396 3.44995 3.47531C3.44995 3.80666 3.71853 4.07523 4.04995 4.07523Z" fill="current"/>
<path d="M23.9305 3.77331C23.9785 3.85701 23.8767 3.73438 25.5832 5.62693C25.8043 5.87226 26.1838 5.89326 26.4305 5.67066C26.6766 5.44873 26.6962 5.06931 26.4742 4.82323L25.7995 4.07503H31.9505C32.2819 4.07503 32.5505 3.80638 32.5505 3.47503C32.5505 3.14368 32.2819 2.87503 31.9505 2.87503H25.7995L26.4742 2.12683C26.6962 1.88076 26.6766 1.50133 26.4305 1.27941C26.1844 1.05756 25.805 1.07706 25.5832 1.32313C23.8763 3.21606 23.9864 3.08826 23.9457 3.15171C23.8195 3.34873 23.8247 3.58926 23.9305 3.77331Z" fill="current"/>
</svg>
